#!OML:ASF F:\VICON\USERDATA\INSTALL\rory3\rory3.ASF
:FULLY-SPECIFIED
:DEGREES
377
root 0.826162 14.4359 7.12906 23.1846 -4.78356 -4.96475
lowerback 3.2318 -0.449581 2.03966
upperback -5.04873 -0.337178 2.18381
thorax -7.08024 -0.212492 1.17233
lowerneck -14.6124 -1.51819 -7.09519
upperneck 10.7357 -1.5562 6.96342
head 5.7445 -0.523263 3.22794
rclavicle -3.09607e-014 1.73937e-014
rhumerus -38.2845 3.91631 -81.9751
rradius 56.2034
rwrist 15.7402
rhand -28.892 -53.2983
rfingers 7.12502
rthumb -2.24742 -83.2662
lclavicle -3.09607e-014 1.73937e-014
lhumerus -35.754 -16.3191 81.2919
lradius 47.3454
lwrist -3.26904
lhand -33.6976 -45.225
lfingers 7.12502
lthumb -6.8877 -15.3571
rfemur -64.2166 4.50454 20.9192
rtibia 80.872
rfoot -30.5826 -22.2493
rtoes -14.6377
lfemur -61.676 5.70011 -10.7922
ltibia 81.6607
lfoot -34.5605 15.509
ltoes -20.3268
378
root 0.813995 14.4206 7.12612 22.8793 -4.893 -4.7898
lowerback 3.48354 -0.38134 1.73469
upperback -5.10039 -0.261543 2.09531
thorax -7.2801 -0.16166 1.2471
lowerneck -14.793 -1.59873 -7.37431
upperneck 11.2526 -1.65903 7.25537
head 5.95005 -0.560002 3.36468
rclavicle -1.41137e-014 2.33572e-014
rhumerus -38.5452 4.07193 -81.6928
rradius 56.3709
rwrist 15.1086
rhand -28.0306 -53.9723
rfingers 7.12502
rthumb -1.41547 -83.9474
lclavicle -1.41137e-014 2.33572e-014
lhumerus -35.5791 -16.715 81.3994
lradius 47.8914
lwrist -1.63237
lhand -34.2807 -45.6031
lfingers 7.12502
lthumb -7.45052 -15.7543
rfemur -64.0844 4.88405 20.6958
rtibia 81.1332
rfoot -30.6776 -22.2509
rtoes -14.1999
lfemur -61.3964 5.61345 -10.8961
ltibia 81.7122
lfoot -33.9432 15.3181
ltoes -18.847
379
root 0.803013 14.3977 7.12644 22.6919 -5.17496 -4.79872
lowerback 3.49907 -0.236161 1.54039
upperback -5.1641 -0.0822676 2.02364
thorax -7.35804 -0.064793 1.26434
lowerneck -14.5261 -1.72618 -7.66669
upperneck 11.4548 -1.84634 7.58681
head 5.98934 -0.643092 3.50446
rclavicle -1.56543e-015 -1.85864e-014
rhumerus -38.8078 4.19163 -81.4206
rradius 56.5468
rwrist 14.9854
rhand -27.1203 -54.3025
rfingers 7.12502
rthumb -0.53627 -84.2816
lclavicle -1.56543e-015 -1.85864e-014
lhumerus -35.5871 -17.0663 81.5087
lradius 48.4349
lwrist -0.9728
lhand -34.5592 -45.5856
lfingers 7.12502
lthumb -7.71935 -15.7465
rfemur -63.9582 5.42433 20.5963
rtibia 81.0782
rfoot -30.3748 -22.1728
rtoes -14.2774
lfemur -61.1875 5.7948 -10.8654
ltibia 81.5662
lfoot -33.7632 14.9698
ltoes -17.2975
380
root 0.793357 14.4235 7.12149 22.4695 -5.56914 -4.52819
lowerback 3.70936 -0.125885 1.03866
upperback -5.29919 0.0287705 1.87575
thorax -7.62573 0.0135164 1.38268
lowerneck -14.1226 -1.77758 -7.86265
upperneck 11.5888 -1.94292 7.80835
head 5.97534 -0.689395 3.60058
rclavicle -1.13804e-014 2.08724e-015
rhumerus -39.1166 4.4168 -81.2873
rradius 56.929
rwrist 15.0735
rhand -26.8732 -54.4695
rfingers 7.12502
rthumb -0.29759 -84.449
lclavicle -1.13804e-014 2.08724e-015
lhumerus -35.7593 -17.3325 81.6125
lradius 48.9443
lwrist -0.95935
lhand -34.8428 -45.5895
lfingers 7.12502
lthumb -7.99308 -15.7606
rfemur -63.5483 5.78902 20.1989
rtibia 80.5359
rfoot -29.5238 -22.2547
rtoes -16.2657
lfemur -60.6777 5.90065 -11.18
ltibia 80.9347
lfoot -33.4829 14.8903
ltoes -16.9742
381
root 0.813475 14.6137 7.26498 22.3296 -5.32391 -4.51951
lowerback 1.79782 -0.21799 1.87122
upperback -5.08681 -0.112031 1.6977
thorax -6.28986 -0.10401 0.726665
lowerneck -13.8678 -1.73654 -8.14301
upperneck 11.9227 -1.91572 8.15077
head 6.0409 -0.667793 3.76477
rclavicle 1.15295e-014 -2.00773e-014
rhumerus -39.57 4.80152 -81.2752
rradius 57.414
rwrist 14.9464
rhand -26.8243 -54.9599
rfingers 7.12502
rthumb -0.250344 -84.9395
lclavicle 1.15295e-014 -2.00773e-014
lhumerus -35.9388 -17.6594 81.7611
lradius 49.2773
lwrist -1.3211
lhand -35.1183 -45.4926
lfingers 7.12502
lthumb -8.25898 -15.6741
rfemur -61.2496 5.15989 20.2387
rtibia 78.8869
rfoot -29.583 -22.1729
rtoes -18.4426
lfemur -58.6103 5.17597 -11.2402
ltibia 79.3295
lfoot -33.5274 15.5662
ltoes -17.7087
382
root 0.813237 14.7445 7.30951 22.1669 -5.24406 -4.72371
lowerback 1.43998 -0.215994 2.22154
upperback -5.22558 -0.100824 1.70581
thorax -6.23276 -0.116151 0.537502
lowerneck -13.4677 -1.69252 -8.38207
upperneck 12.3312 -1.90679 8.47106
head 6.10568 -0.658343 3.91458
rclavicle -9.93923e-017 2.28602e-015
rhumerus -40.2038 5.09597 -81.1941
rradius 57.816
rwrist 14.7122
rhand -26.8851 -54.949
rfingers 7.12502
rthumb -0.309108 -84.9285
lclavicle -9.93923e-017 2.28602e-015
lhumerus -36.2888 -18.1152 82.0438
lradius 49.5942
lwrist -1.82343
lhand -34.9017 -45.5078
lfingers 7.12502
lthumb -8.04986 -15.6811
rfemur -59.9671 5.13059 20.4304
rtibia 77.383
rfoot -29.3952 -21.1409
rtoes -17.339
lfemur -57.5027 4.98601 -10.9405
ltibia 77.8439
lfoot -32.9589 15.3747
ltoes -17.929
383
root 0.810639 14.8835 7.3516 21.9317 -5.27956 -4.76588
lowerback 1.15548 -0.142844 2.30521
upperback -5.2868 -0.00959198 1.66617
thorax -6.1334 -0.075825 0.442386
lowerneck -13.4396 -1.74414 -8.28942
upperneck 12.9402 -2.02011 8.40917
head 6.30181 -0.714402 3.87718
rclavicle -1.85118e-014 -4.87022e-015
rhumerus -40.6518 5.14116 -81.0265
rradius 57.9604
rwrist 14.345
rhand -27.1101 -54.3008
rfingers 7.12502
rthumb -0.526449 -84.2799
lclavicle -1.85118e-014 -4.87022e-015
lhumerus -36.5596 -18.6777 82.3796
lradius 49.9531
lwrist -2.54992
lhand -34.6284 -45.799
lfingers 7.12502
lthumb -7.78613 -15.9624
rfemur -58.6461 5.14066 20.4154
rtibia 75.6729
rfoot -28.7757 -20.0135
rtoes -15.5452
lfemur -56.17 4.83967 -10.8499
ltibia 76.0754
lfoot -31.9794 15.1934
ltoes -18.583
384
root 0.809507 15.0499 7.40259 21.6887 -5.34303 -4.7795
lowerback 0.90683 -0.0322596 2.38068
upperback -5.33222 0.130915 1.60148
thorax -6.03696 -0.0110695 0.323502
lowerneck -14.6036 -2.02401 -7.58086
upperneck 14.5971 -2.39136 7.45161
head 7.04666 -0.913613 3.4321
rclavicle -9.31803e-015 -2.13694e-014
rhumerus -41.1654 5.16252 -80.8569
rradius 58.1416
rwrist 13.917
rhand -27.7165 -53.3989
rfingers 7.12502
rthumb -1.11208 -83.3758
lclavicle -9.31803e-015 -2.13694e-014
lhumerus -36.7695 -19.2777 82.7672
lradius 50.249
lwrist -3.571
lhand -34.4216 -45.682
lfingers 7.12502
lthumb -7.58649 -15.8381
rfemur -57.2715 5.0965 20.4145
rtibia 73.8725
rfoot -26.9781 -19.8415
rtoes -18.2257
lfemur -54.5978 4.65633 -10.8118
ltibia 74.1422
lfoot -30.5148 15.0046
ltoes -19.7647
385
root 0.811843 15.2444 7.45317 21.4248 -5.38328 -4.79472
lowerback 0.676828 0.0479214 2.54419
upperback -5.41878 0.235569 1.54028
thorax -5.99494 0.0309928 0.162469
lowerneck -17.0682 -2.51111 -6.11119
upperneck 17.5678 -2.97033 5.32027
head 8.45426 -1.26448 2.43823
rclavicle -1.16786e-015 6.26172e-015
rhumerus -41.9586 5.42222 -80.8041
rradius 58.709
rwrist 13.3581
rhand -27.3565 -53.8761
rfingers 7.12502
rthumb -0.764401 -83.8545
lclavicle -1.16786e-015 6.26172e-015
lhumerus -37.1758 -19.7148 83.1944
lradius 50.5919
lwrist -4.51159
lhand -34.0959 -45.5365
lfingers 7.12502
lthumb -7.27211 -15.6814
rfemur -55.6681 4.96998 20.3976
rtibia 71.7909
rfoot -25.0195 -19.434
rtoes -21.6149
lfemur -52.9351 4.39118 -10.7396
ltibia 71.9317
lfoot -29.4132 14.2567
ltoes -19.4465
386
root 0.813809 15.4516 7.49645 21.0377 -5.51961 -4.64538
lowerback 0.561555 0.107948 2.5212
upperback -5.44181 0.305953 1.43063
thorax -5.95114 0.0643441 0.0574411
lowerneck -16.9624 -2.43667 -6.17722
upperneck 18.0378 -2.89783 5.43
head 8.59229 -1.22578 2.50091
rclavicle -5.29264e-015 6.26172e-015
rhumerus -42.668 5.81768 -80.9297
rradius 59.2154
rwrist 12.3196
rhand -26.9389 -54.6212
rfingers 7.12502
rthumb -0.361054 -84.6006
lclavicle -5.29264e-015 6.26172e-015
lhumerus -37.7014 -20.0118 83.5931
lradius 51.0785
lwrist -5.25489
lhand -33.7755 -45.4132
lfingers 7.12502
lthumb -6.96289 -15.5477
rfemur -53.9754 4.8794 20.1399
rtibia 69.5508
rfoot -23.7074 -17.7818
rtoes -21.2254
lfemur -51.0809 4.17102 -10.8607
ltibia 69.5092
lfoot -28.4631 13.2822
ltoes -18.6849
387
root 0.819539 15.7074 7.58015 20.6988 -5.5415 -4.63237
lowerback -0.287477 0.164852 2.80286
upperback -5.22494 0.347756 1.34017
thorax -5.23357 0.0779285 -0.19564
lowerneck -16.8486 -2.45177 -6.23335
upperneck 18.3503 -2.9388 5.50373
head 8.68254 -1.24345 2.53412
rclavicle -7.97623e-015 5.96354e-015
rhumerus -43.0684 6.0587 -81.0458
rradius 59.4317
rwrist 11.3093
rhand -27.6072 -53.7332
rfingers 7.12502
rthumb -1.00651 -83.7106
lclavicle -7.97623e-015 5.96354e-015
lhumerus -37.9566 -20.4156 83.9914
lradius 51.4556
lwrist -5.52911
lhand -33.5972 -45.0644
lfingers 7.12502
lthumb -6.79078 -15.1933
rfemur -51.9039 4.58533 20.1037
rtibia 66.9638
rfoot -22.2192 -16.0287
rtoes -20.4436
lfemur -49.0497 3.96852 -10.9169
ltibia 66.8715
lfoot -26.9002 12.4665
ltoes -19.1594
388
root 0.815291 15.9512 7.63131 20.3401 -5.54278 -4.68036
lowerback -0.738835 0.227707 2.90985
upperback -5.08208 0.41152 1.329
thorax -4.82396 0.110406 -0.268662
lowerneck -16.8386 -2.51295 -6.17731
upperneck 18.8591 -3.0284 5.36706
head 8.8571 -1.29699 2.4722
rclavicle 2.39784e-015 1.60022e-014
rhumerus -43.389 6.129 -81.0608
rradius 59.4664
rwrist 10.8086
rhand -28.0464 -53.2876
rfingers 7.12502
rthumb -1.43073 -83.2625
lclavicle 2.39784e-015 1.60022e-014
lhumerus -38.121 -20.8111 84.4379
lradius 51.695
lwrist -5.25218
lhand -33.5703 -45.3365
lfingers 7.12502
lthumb -6.76478 -15.4645
rfemur -49.8286 4.46643 20.1898
rtibia 64.2874
rfoot -20.1854 -14.9199
rtoes -22.4769
lfemur -47.2172 3.86952 -10.8175
ltibia 64.1544
lfoot -24.7276 11.6208
ltoes -20.2277
389
root 0.815214 16.1851 7.69002 20.0246 -5.606 -4.78446
lowerback -1.18168 0.313719 3.12404
upperback -5.08529 0.510431 1.30466
thorax -4.57198 0.153162 -0.414653
lowerneck -16.8262 -2.47846 -6.103
upperneck 19.6074 -3.00954 5.27688
head 9.10797 -1.29399 2.43964
rclavicle 1.04859e-014 -1.73937e-014
rhumerus -43.7903 6.23004 -81.131
rradius 59.115
rwrist 10.4116
rhand -28.2622 -53.4369
rfingers 7.12502
rthumb -1.63916 -83.4104
lclavicle 1.04859e-014 -1.73937e-014
lhumerus -38.6938 -21.0429 84.9417
lradius 52.06
lwrist -4.77149
lhand -33.3558 -45.7136
lfingers 7.12502
lthumb -6.55771 -15.8351
rfemur -47.7628 4.3727 20.2388
rtibia 61.5416
rfoot -18.0653 -13.625
rtoes -25.0701
lfemur -44.9061 3.74661 -10.6366
ltibia 61.1876
lfoot -22.7145 11.0276
ltoes -21.8087
390
root 0.813688 16.4424 7.75627 19.6554 -5.91235 -4.37425
lowerback -1.57454 0.399114 2.70923
upperback -5.17419 0.599858 1.15885
thorax -4.43976 0.212362 -0.333442
lowerneck -16.3789 -2.43093 -6.10058
upperneck 20.1271 -2.98526 5.253
head 9.20339 -1.29273 2.44182
rclavicle -1.31322e-014 1.49089e-014
rhumerus -44.4223 6.45045 -81.3076
rradius 59.1084
rwrist 10.3925
rhand -26.4536 -53.6535
rfingers 7.12502
rthumb 0.107673 -83.6332
lclavicle -1.31322e-014 1.49089e-014
lhumerus -39.577 -21.1663 85.5513
lradius 52.4918
lwrist -4.24788
lhand -33.2057 -45.3954
lfingers 7.12502
lthumb -6.41276 -15.5124
rfemur -45.7779 4.36369 19.6003
rtibia 58.739
rfoot -15.5003 -11.9941
rtoes -26.5732
lfemur -42.4072 3.5053 -11.0545
ltibia 58.0068
lfoot -20.4266 10.2225
ltoes -24.4051
